<?xml version="1.0" standalone="no"?>
<!DOCTYPE svg PUBLIC "-//W3C//DTD SVG 20010904//EN"
 "http://www.w3.org/TR/2001/REC-SVG-20010904/DTD/svg10.dtd">
<svg version="1.0" xmlns="http://www.w3.org/2000/svg"
 width="500.000000pt" height="500.000000pt" viewBox="0 0 500.000000 500.000000"
 preserveAspectRatio="xMidYMid meet">
<metadata>
Created by potrace 1.11, written by Peter Selinger 2001-2013
</metadata>
<g transform="translate(0.000000,500.000000) scale(0.100000,-0.100000)"
fill="#000000" stroke="none">
<path d="M140 4623 c0 -38 3 -43 23 -44 162 -7 213 -18 232 -49 22 -35 25
-156 25 -865 0 -650 -4 -815 -19 -844 -20 -37 -58 -51 -153 -57 -50 -3 -95 -7
-100 -10 -4 -3 -8 -22 -8 -42 l0 -37 410 0 c403 0 410 0 411 20 1 20 -2 59 -5
62 -1 1 -43 4 -94 7 -131 8 -157 25 -169 106 -2 14 -6 190 -8 393 l-5 367 98
1 c241 3 409 -3 473 -17 52 -10 58 -26 78 -219 l6 -60 44 0 45 0 -3 110 c-5
151 -5 320 0 445 l4 105 -44 0 -45 0 -13 -87 c-6 -48 -17 -97 -23 -107 -18
-35 -75 -43 -352 -48 l-268 -5 4 348 c4 303 10 420 21 432 5 6 194 16 300 16
184 0 371 -22 413 -48 11 -7 25 -86 37 -206 2 -25 4 -47 4 -50 1 -7 78 -6 84
0 3 3 8 56 11 118 6 102 17 199 31 273 4 23 1 28 -23 32 -15 3 -341 5 -724 4
l-698 -2 0 -42z"/>
<path d="M1576 3272 c3 -54 6 -158 7 -232 l3 -135 37 -2 c49 -1 49 -1 61 119
15 149 24 177 54 190 15 6 136 13 273 15 l246 6 4 -79 c5 -106 4 -1486 -1
-1549 -8 -113 -31 -132 -172 -141 -51 -4 -95 -10 -98 -15 -5 -7 -5 -44 -1 -69
1 -3 185 -5 409 -5 l408 0 -1 37 c0 20 -3 39 -6 42 -3 3 -47 8 -97 11 -52 3
-105 11 -121 20 -54 27 -55 44 -55 885 1 421 3 785 6 810 l5 45 184 -1 c330
-1 358 -6 360 -71 0 -16 2 -35 4 -44 1 -8 6 -56 10 -105 3 -48 8 -91 11 -95 5
-9 84 -10 85 -1 0 4 2 41 4 82 5 134 16 352 18 364 1 8 -47 10 -173 6 -259 -7
-1078 -6 -1287 2 l-182 6 5 -96z"/>
<path d="M3196 2236 c3 -55 7 -157 9 -226 1 -69 3 -129 4 -133 0 -5 20 -7 43
-5 37 3 42 6 44 28 2 42 16 174 20 195 12 62 17 73 42 85 18 9 105 14 274 18
237 4 247 4 248 -14 1 -11 3 -369 4 -798 3 -868 1 -902 -53 -931 -16 -8 -69
-17 -118 -20 -109 -8 -110 -8 -107 -37 1 -12 3 -30 3 -38 1 -13 53 -15 409
-15 l408 0 -1 37 c0 20 -3 39 -5 41 -3 2 -45 7 -95 11 -146 10 -168 30 -175
161 -5 104 -3 1498 3 1545 3 25 6 49 6 54 1 8 433 1 476 -8 11 -3 25 -5 32 -5
7 -1 17 -9 22 -19 11 -20 28 -166 30 -263 1 -25 4 -27 46 -26 33 0 45 5 46 16
1 9 2 45 4 81 3 91 16 342 18 355 1 7 -61 8 -188 5 -269 -7 -1045 -6 -1267 2
l-187 6 5 -102z"/>
</g>
</svg>
